<svg width="671" height="18" viewBox="0 0 671 18" fill="none" xmlns="http://www.w3.org/2000/svg">
<g clip-path="url(#clip0_54981_1376)">
<g clip-path="url(#clip1_54981_1376)">
<path d="M16 2L-2 20" stroke="#FE6A25" stroke-miterlimit="10" stroke-linecap="square"/>
<path d="M6 2L-12 20" stroke="#FE6A25" stroke-miterlimit="10" stroke-linecap="square"/>
<path d="M36 2L18 20" stroke="#FE6A25" stroke-miterlimit="10" stroke-linecap="square"/>
<path d="M26 2L8 20" stroke="#FE6A25" stroke-miterlimit="10" stroke-linecap="square"/>
</g>
<g clip-path="url(#clip2_54981_1376)">
<path d="M36 2L18 20" stroke="#FE6A25" stroke-miterlimit="10" stroke-linecap="square"/>
<path d="M26 2L8 20" stroke="#FE6A25" stroke-miterlimit="10" stroke-linecap="square"/>
<path d="M56 2L38 20" stroke="#FE6A25" stroke-miterlimit="10" stroke-linecap="square"/>
<path d="M46 2L28 20" stroke="#FE6A25" stroke-miterlimit="10" stroke-linecap="square"/>
</g>
<g clip-path="url(#clip3_54981_1376)">
<path d="M56 2L38 20" stroke="#FE6A25" stroke-miterlimit="10" stroke-linecap="square"/>
<path d="M46 2L28 20" stroke="#FE6A25" stroke-miterlimit="10" stroke-linecap="square"/>
<path d="M76 2L58 20" stroke="#FE6A25" stroke-miterlimit="10" stroke-linecap="square"/>
<path d="M66 2L48 20" stroke="#FE6A25" stroke-miterlimit="10" stroke-linecap="square"/>
</g>
<g clip-path="url(#clip4_54981_1376)">
<path d="M76 2L58 20" stroke="#FE6A25" stroke-miterlimit="10" stroke-linecap="square"/>
<path d="M66 2L48 20" stroke="#FE6A25" stroke-miterlimit="10" stroke-linecap="square"/>
<path d="M96 2L78 20" stroke="#FE6A25" stroke-miterlimit="10" stroke-linecap="square"/>
<path d="M86 2L68 20" stroke="#FE6A25" stroke-miterlimit="10" stroke-linecap="square"/>
</g>
<g clip-path="url(#clip5_54981_1376)">
<path d="M96 2L78 20" stroke="#FE6A25" stroke-miterlimit="10" stroke-linecap="square"/>
<path d="M86 2L68 20" stroke="#FE6A25" stroke-miterlimit="10" stroke-linecap="square"/>
<path d="M116 2L98 20" stroke="#FE6A25" stroke-miterlimit="10" stroke-linecap="square"/>
<path d="M106 2L88 20" stroke="#FE6A25" stroke-miterlimit="10" stroke-linecap="square"/>
</g>
<g clip-path="url(#clip6_54981_1376)">
<path d="M116 2L98 20" stroke="#FE6A25" stroke-miterlimit="10" stroke-linecap="square"/>
<path d="M106 2L88 20" stroke="#FE6A25" stroke-miterlimit="10" stroke-linecap="square"/>
<path d="M136 2L118 20" stroke="#FE6A25" stroke-miterlimit="10" stroke-linecap="square"/>
<path d="M126 2L108 20" stroke="#FE6A25" stroke-miterlimit="10" stroke-linecap="square"/>
</g>
<g clip-path="url(#clip7_54981_1376)">
<path d="M136 2L118 20" stroke="#FE6A25" stroke-miterlimit="10" stroke-linecap="square"/>
<path d="M126 2L108 20" stroke="#FE6A25" stroke-miterlimit="10" stroke-linecap="square"/>
<path d="M156 2L138 20" stroke="#FE6A25" stroke-miterlimit="10" stroke-linecap="square"/>
<path d="M146 2L128 20" stroke="#FE6A25" stroke-miterlimit="10" stroke-linecap="square"/>
</g>
<g clip-path="url(#clip8_54981_1376)">
<path d="M156 2L138 20" stroke="#FE6A25" stroke-miterlimit="10" stroke-linecap="square"/>
<path d="M146 2L128 20" stroke="#FE6A25" stroke-miterlimit="10" stroke-linecap="square"/>
<path d="M176 2L158 20" stroke="#FE6A25" stroke-miterlimit="10" stroke-linecap="square"/>
<path d="M166 2L148 20" stroke="#FE6A25" stroke-miterlimit="10" stroke-linecap="square"/>
</g>
<g clip-path="url(#clip9_54981_1376)">
<path d="M176 2L158 20" stroke="#FE6A25" stroke-miterlimit="10" stroke-linecap="square"/>
<path d="M166 2L148 20" stroke="#FE6A25" stroke-miterlimit="10" stroke-linecap="square"/>
<path d="M196 2L178 20" stroke="#FE6A25" stroke-miterlimit="10" stroke-linecap="square"/>
<path d="M186 2L168 20" stroke="#FE6A25" stroke-miterlimit="10" stroke-linecap="square"/>
</g>
<g clip-path="url(#clip10_54981_1376)">
<path d="M196 2L178 20" stroke="#FE6A25" stroke-miterlimit="10" stroke-linecap="square"/>
<path d="M186 2L168 20" stroke="#FE6A25" stroke-miterlimit="10" stroke-linecap="square"/>
<path d="M216 2L198 20" stroke="#FE6A25" stroke-miterlimit="10" stroke-linecap="square"/>
<path d="M206 2L188 20" stroke="#FE6A25" stroke-miterlimit="10" stroke-linecap="square"/>
</g>
<g clip-path="url(#clip11_54981_1376)">
<path d="M216 2L198 20" stroke="#FE6A25" stroke-miterlimit="10" stroke-linecap="square"/>
<path d="M206 2L188 20" stroke="#FE6A25" stroke-miterlimit="10" stroke-linecap="square"/>
<path d="M236 2L218 20" stroke="#FE6A25" stroke-miterlimit="10" stroke-linecap="square"/>
<path d="M226 2L208 20" stroke="#FE6A25" stroke-miterlimit="10" stroke-linecap="square"/>
</g>
<g clip-path="url(#clip12_54981_1376)">
<path d="M236 2L218 20" stroke="#FE6A25" stroke-miterlimit="10" stroke-linecap="square"/>
<path d="M226 2L208 20" stroke="#FE6A25" stroke-miterlimit="10" stroke-linecap="square"/>
<path d="M256 2L238 20" stroke="#FE6A25" stroke-miterlimit="10" stroke-linecap="square"/>
<path d="M246 2L228 20" stroke="#FE6A25" stroke-miterlimit="10" stroke-linecap="square"/>
</g>
<g clip-path="url(#clip13_54981_1376)">
<path d="M256 2L238 20" stroke="#FE6A25" stroke-miterlimit="10" stroke-linecap="square"/>
<path d="M246 2L228 20" stroke="#FE6A25" stroke-miterlimit="10" stroke-linecap="square"/>
<path d="M276 2L258 20" stroke="#FE6A25" stroke-miterlimit="10" stroke-linecap="square"/>
<path d="M266 2L248 20" stroke="#FE6A25" stroke-miterlimit="10" stroke-linecap="square"/>
</g>
<g clip-path="url(#clip14_54981_1376)">
<path d="M276 2L258 20" stroke="#FE6A25" stroke-miterlimit="10" stroke-linecap="square"/>
<path d="M266 2L248 20" stroke="#FE6A25" stroke-miterlimit="10" stroke-linecap="square"/>
<path d="M296 2L278 20" stroke="#FE6A25" stroke-miterlimit="10" stroke-linecap="square"/>
<path d="M286 2L268 20" stroke="#FE6A25" stroke-miterlimit="10" stroke-linecap="square"/>
</g>
<g clip-path="url(#clip15_54981_1376)">
<path d="M296 2L278 20" stroke="#FE6A25" stroke-miterlimit="10" stroke-linecap="square"/>
<path d="M286 2L268 20" stroke="#FE6A25" stroke-miterlimit="10" stroke-linecap="square"/>
<path d="M316 2L298 20" stroke="#FE6A25" stroke-miterlimit="10" stroke-linecap="square"/>
<path d="M306 2L288 20" stroke="#FE6A25" stroke-miterlimit="10" stroke-linecap="square"/>
</g>
<g clip-path="url(#clip16_54981_1376)">
<path d="M316 2L298 20" stroke="#FE6A25" stroke-miterlimit="10" stroke-linecap="square"/>
<path d="M306 2L288 20" stroke="#FE6A25" stroke-miterlimit="10" stroke-linecap="square"/>
<path d="M336 2L318 20" stroke="#FE6A25" stroke-miterlimit="10" stroke-linecap="square"/>
<path d="M326 2L308 20" stroke="#FE6A25" stroke-miterlimit="10" stroke-linecap="square"/>
</g>
<g clip-path="url(#clip17_54981_1376)">
<path d="M336 2L318 20" stroke="#FE6A25" stroke-miterlimit="10" stroke-linecap="square"/>
<path d="M326 2L308 20" stroke="#FE6A25" stroke-miterlimit="10" stroke-linecap="square"/>
<path d="M356 2L338 20" stroke="#FE6A25" stroke-miterlimit="10" stroke-linecap="square"/>
<path d="M346 2L328 20" stroke="#FE6A25" stroke-miterlimit="10" stroke-linecap="square"/>
</g>
<g clip-path="url(#clip18_54981_1376)">
<path d="M356 2L338 20" stroke="#FE6A25" stroke-miterlimit="10" stroke-linecap="square"/>
<path d="M346 2L328 20" stroke="#FE6A25" stroke-miterlimit="10" stroke-linecap="square"/>
<path d="M376 2L358 20" stroke="#FE6A25" stroke-miterlimit="10" stroke-linecap="square"/>
<path d="M366 2L348 20" stroke="#FE6A25" stroke-miterlimit="10" stroke-linecap="square"/>
</g>
<g clip-path="url(#clip19_54981_1376)">
<path d="M376 2L358 20" stroke="#FE6A25" stroke-miterlimit="10" stroke-linecap="square"/>
<path d="M366 2L348 20" stroke="#FE6A25" stroke-miterlimit="10" stroke-linecap="square"/>
<path d="M396 2L378 20" stroke="#FE6A25" stroke-miterlimit="10" stroke-linecap="square"/>
<path d="M386 2L368 20" stroke="#FE6A25" stroke-miterlimit="10" stroke-linecap="square"/>
</g>
<g clip-path="url(#clip20_54981_1376)">
<path d="M396 2L378 20" stroke="#FE6A25" stroke-miterlimit="10" stroke-linecap="square"/>
<path d="M386 2L368 20" stroke="#FE6A25" stroke-miterlimit="10" stroke-linecap="square"/>
<path d="M416 2L398 20" stroke="#FE6A25" stroke-miterlimit="10" stroke-linecap="square"/>
<path d="M406 2L388 20" stroke="#FE6A25" stroke-miterlimit="10" stroke-linecap="square"/>
</g>
<g clip-path="url(#clip21_54981_1376)">
<path d="M416 2L398 20" stroke="#FE6A25" stroke-miterlimit="10" stroke-linecap="square"/>
<path d="M406 2L388 20" stroke="#FE6A25" stroke-miterlimit="10" stroke-linecap="square"/>
<path d="M436 2L418 20" stroke="#FE6A25" stroke-miterlimit="10" stroke-linecap="square"/>
<path d="M426 2L408 20" stroke="#FE6A25" stroke-miterlimit="10" stroke-linecap="square"/>
</g>
<g clip-path="url(#clip22_54981_1376)">
<path d="M436 2L418 20" stroke="#FE6A25" stroke-miterlimit="10" stroke-linecap="square"/>
<path d="M426 2L408 20" stroke="#FE6A25" stroke-miterlimit="10" stroke-linecap="square"/>
<path d="M456 2L438 20" stroke="#FE6A25" stroke-miterlimit="10" stroke-linecap="square"/>
<path d="M446 2L428 20" stroke="#FE6A25" stroke-miterlimit="10" stroke-linecap="square"/>
</g>
<g clip-path="url(#clip23_54981_1376)">
<path d="M456 2L438 20" stroke="#FE6A25" stroke-miterlimit="10" stroke-linecap="square"/>
<path d="M446 2L428 20" stroke="#FE6A25" stroke-miterlimit="10" stroke-linecap="square"/>
<path d="M476 2L458 20" stroke="#FE6A25" stroke-miterlimit="10" stroke-linecap="square"/>
<path d="M466 2L448 20" stroke="#FE6A25" stroke-miterlimit="10" stroke-linecap="square"/>
</g>
<g clip-path="url(#clip24_54981_1376)">
<path d="M476 2L458 20" stroke="#FE6A25" stroke-miterlimit="10" stroke-linecap="square"/>
<path d="M466 2L448 20" stroke="#FE6A25" stroke-miterlimit="10" stroke-linecap="square"/>
<path d="M496 2L478 20" stroke="#FE6A25" stroke-miterlimit="10" stroke-linecap="square"/>
<path d="M486 2L468 20" stroke="#FE6A25" stroke-miterlimit="10" stroke-linecap="square"/>
</g>
<g clip-path="url(#clip25_54981_1376)">
<path d="M496 2L478 20" stroke="#FE6A25" stroke-miterlimit="10" stroke-linecap="square"/>
<path d="M486 2L468 20" stroke="#FE6A25" stroke-miterlimit="10" stroke-linecap="square"/>
<path d="M516 2L498 20" stroke="#FE6A25" stroke-miterlimit="10" stroke-linecap="square"/>
<path d="M506 2L488 20" stroke="#FE6A25" stroke-miterlimit="10" stroke-linecap="square"/>
</g>
<g clip-path="url(#clip26_54981_1376)">
<path d="M516 2L498 20" stroke="#FE6A25" stroke-miterlimit="10" stroke-linecap="square"/>
<path d="M506 2L488 20" stroke="#FE6A25" stroke-miterlimit="10" stroke-linecap="square"/>
<path d="M536 2L518 20" stroke="#FE6A25" stroke-miterlimit="10" stroke-linecap="square"/>
<path d="M526 2L508 20" stroke="#FE6A25" stroke-miterlimit="10" stroke-linecap="square"/>
</g>
<g clip-path="url(#clip27_54981_1376)">
<path d="M536 2L518 20" stroke="#FE6A25" stroke-miterlimit="10" stroke-linecap="square"/>
<path d="M526 2L508 20" stroke="#FE6A25" stroke-miterlimit="10" stroke-linecap="square"/>
<path d="M556 2L538 20" stroke="#FE6A25" stroke-miterlimit="10" stroke-linecap="square"/>
<path d="M546 2L528 20" stroke="#FE6A25" stroke-miterlimit="10" stroke-linecap="square"/>
</g>
<g clip-path="url(#clip28_54981_1376)">
<path d="M556 2L538 20" stroke="#FE6A25" stroke-miterlimit="10" stroke-linecap="square"/>
<path d="M546 2L528 20" stroke="#FE6A25" stroke-miterlimit="10" stroke-linecap="square"/>
<path d="M576 2L558 20" stroke="#FE6A25" stroke-miterlimit="10" stroke-linecap="square"/>
<path d="M566 2L548 20" stroke="#FE6A25" stroke-miterlimit="10" stroke-linecap="square"/>
</g>
<g clip-path="url(#clip29_54981_1376)">
<path d="M576 2L558 20" stroke="#FE6A25" stroke-miterlimit="10" stroke-linecap="square"/>
<path d="M566 2L548 20" stroke="#FE6A25" stroke-miterlimit="10" stroke-linecap="square"/>
<path d="M596 2L578 20" stroke="#FE6A25" stroke-miterlimit="10" stroke-linecap="square"/>
<path d="M586 2L568 20" stroke="#FE6A25" stroke-miterlimit="10" stroke-linecap="square"/>
</g>
<g clip-path="url(#clip30_54981_1376)">
<path d="M596 2L578 20" stroke="#FE6A25" stroke-miterlimit="10" stroke-linecap="square"/>
<path d="M586 2L568 20" stroke="#FE6A25" stroke-miterlimit="10" stroke-linecap="square"/>
<path d="M616 2L598 20" stroke="#FE6A25" stroke-miterlimit="10" stroke-linecap="square"/>
<path d="M606 2L588 20" stroke="#FE6A25" stroke-miterlimit="10" stroke-linecap="square"/>
</g>
<g clip-path="url(#clip31_54981_1376)">
<path d="M616 2L598 20" stroke="#FE6A25" stroke-miterlimit="10" stroke-linecap="square"/>
<path d="M606 2L588 20" stroke="#FE6A25" stroke-miterlimit="10" stroke-linecap="square"/>
<path d="M636 2L618 20" stroke="#FE6A25" stroke-miterlimit="10" stroke-linecap="square"/>
<path d="M626 2L608 20" stroke="#FE6A25" stroke-miterlimit="10" stroke-linecap="square"/>
</g>
<g clip-path="url(#clip32_54981_1376)">
<path d="M636 2L618 20" stroke="#FE6A25" stroke-miterlimit="10" stroke-linecap="square"/>
<path d="M626 2L608 20" stroke="#FE6A25" stroke-miterlimit="10" stroke-linecap="square"/>
<path d="M656 2L638 20" stroke="#FE6A25" stroke-miterlimit="10" stroke-linecap="square"/>
<path d="M646 2L628 20" stroke="#FE6A25" stroke-miterlimit="10" stroke-linecap="square"/>
</g>
<g clip-path="url(#clip33_54981_1376)">
<path d="M656 2L638 20" stroke="#FE6A25" stroke-miterlimit="10" stroke-linecap="square"/>
<path d="M646 2L628 20" stroke="#FE6A25" stroke-miterlimit="10" stroke-linecap="square"/>
<path d="M676 2L658 20" stroke="#FE6A25" stroke-miterlimit="10" stroke-linecap="square"/>
<path d="M666 2L648 20" stroke="#FE6A25" stroke-miterlimit="10" stroke-linecap="square"/>
</g>
<g clip-path="url(#clip34_54981_1376)">
<path d="M676 2L658 20" stroke="#FE6A25" stroke-miterlimit="10" stroke-linecap="square"/>
<path d="M666 2L648 20" stroke="#FE6A25" stroke-miterlimit="10" stroke-linecap="square"/>
<path d="M686 2L668 20" stroke="#FE6A25" stroke-miterlimit="10" stroke-linecap="square"/>
</g>
</g>
<defs>
<clipPath id="clip0_54981_1376">
<rect width="671" height="18" fill="white"/>
</clipPath>
<clipPath id="clip1_54981_1376">
<rect width="20" height="16" fill="white" transform="translate(0 2)"/>
</clipPath>
<clipPath id="clip2_54981_1376">
<rect width="20" height="16" fill="white" transform="translate(20 2)"/>
</clipPath>
<clipPath id="clip3_54981_1376">
<rect width="20" height="16" fill="white" transform="translate(40 2)"/>
</clipPath>
<clipPath id="clip4_54981_1376">
<rect width="20" height="16" fill="white" transform="translate(60 2)"/>
</clipPath>
<clipPath id="clip5_54981_1376">
<rect width="20" height="16" fill="white" transform="translate(80 2)"/>
</clipPath>
<clipPath id="clip6_54981_1376">
<rect width="20" height="16" fill="white" transform="translate(100 2)"/>
</clipPath>
<clipPath id="clip7_54981_1376">
<rect width="20" height="16" fill="white" transform="translate(120 2)"/>
</clipPath>
<clipPath id="clip8_54981_1376">
<rect width="20" height="16" fill="white" transform="translate(140 2)"/>
</clipPath>
<clipPath id="clip9_54981_1376">
<rect width="20" height="16" fill="white" transform="translate(160 2)"/>
</clipPath>
<clipPath id="clip10_54981_1376">
<rect width="20" height="16" fill="white" transform="translate(180 2)"/>
</clipPath>
<clipPath id="clip11_54981_1376">
<rect width="20" height="16" fill="white" transform="translate(200 2)"/>
</clipPath>
<clipPath id="clip12_54981_1376">
<rect width="20" height="16" fill="white" transform="translate(220 2)"/>
</clipPath>
<clipPath id="clip13_54981_1376">
<rect width="20" height="16" fill="white" transform="translate(240 2)"/>
</clipPath>
<clipPath id="clip14_54981_1376">
<rect width="20" height="16" fill="white" transform="translate(260 2)"/>
</clipPath>
<clipPath id="clip15_54981_1376">
<rect width="20" height="16" fill="white" transform="translate(280 2)"/>
</clipPath>
<clipPath id="clip16_54981_1376">
<rect width="20" height="16" fill="white" transform="translate(300 2)"/>
</clipPath>
<clipPath id="clip17_54981_1376">
<rect width="20" height="16" fill="white" transform="translate(320 2)"/>
</clipPath>
<clipPath id="clip18_54981_1376">
<rect width="20" height="16" fill="white" transform="translate(340 2)"/>
</clipPath>
<clipPath id="clip19_54981_1376">
<rect width="20" height="16" fill="white" transform="translate(360 2)"/>
</clipPath>
<clipPath id="clip20_54981_1376">
<rect width="20" height="16" fill="white" transform="translate(380 2)"/>
</clipPath>
<clipPath id="clip21_54981_1376">
<rect width="20" height="16" fill="white" transform="translate(400 2)"/>
</clipPath>
<clipPath id="clip22_54981_1376">
<rect width="20" height="16" fill="white" transform="translate(420 2)"/>
</clipPath>
<clipPath id="clip23_54981_1376">
<rect width="20" height="16" fill="white" transform="translate(440 2)"/>
</clipPath>
<clipPath id="clip24_54981_1376">
<rect width="20" height="16" fill="white" transform="translate(460 2)"/>
</clipPath>
<clipPath id="clip25_54981_1376">
<rect width="20" height="16" fill="white" transform="translate(480 2)"/>
</clipPath>
<clipPath id="clip26_54981_1376">
<rect width="20" height="16" fill="white" transform="translate(500 2)"/>
</clipPath>
<clipPath id="clip27_54981_1376">
<rect width="20" height="16" fill="white" transform="translate(520 2)"/>
</clipPath>
<clipPath id="clip28_54981_1376">
<rect width="20" height="16" fill="white" transform="translate(540 2)"/>
</clipPath>
<clipPath id="clip29_54981_1376">
<rect width="20" height="16" fill="white" transform="translate(560 2)"/>
</clipPath>
<clipPath id="clip30_54981_1376">
<rect width="20" height="16" fill="white" transform="translate(580 2)"/>
</clipPath>
<clipPath id="clip31_54981_1376">
<rect width="20" height="16" fill="white" transform="translate(600 2)"/>
</clipPath>
<clipPath id="clip32_54981_1376">
<rect width="20" height="16" fill="white" transform="translate(620 2)"/>
</clipPath>
<clipPath id="clip33_54981_1376">
<rect width="20" height="16" fill="white" transform="translate(640 2)"/>
</clipPath>
<clipPath id="clip34_54981_1376">
<rect width="20" height="16" fill="white" transform="translate(660 2)"/>
</clipPath>
</defs>
</svg>
