<svg width="144" height="38" viewBox="0 0 144 38" fill="none" xmlns="http://www.w3.org/2000/svg">
<path d="M9.98864 27H2.76989V6.63636H10.0483C12.0966 6.63636 13.8598 7.04403 15.3381 7.85938C16.8163 8.66809 17.9531 9.83144 18.7486 11.3494C19.5507 12.8674 19.9517 14.6837 19.9517 16.7983C19.9517 18.9195 19.5507 20.7424 18.7486 22.267C17.9531 23.7917 16.8097 24.9616 15.3182 25.777C13.8333 26.5923 12.0568 27 9.98864 27ZM7.07528 23.3111H9.80966C11.0824 23.3111 12.1529 23.0857 13.0213 22.6349C13.8963 22.1776 14.5526 21.4716 14.9901 20.517C15.4342 19.5559 15.6562 18.3163 15.6562 16.7983C15.6562 15.2936 15.4342 14.0639 14.9901 13.1094C14.5526 12.1548 13.8996 11.4522 13.0312 11.0014C12.1629 10.5507 11.0923 10.3253 9.8196 10.3253H7.07528V23.3111ZM30.0217 27.2983C28.4506 27.2983 27.0984 26.9801 25.9648 26.3438C24.8379 25.7008 23.9696 24.7926 23.3597 23.6193C22.7499 22.4394 22.445 21.044 22.445 19.4332C22.445 17.8622 22.7499 16.4834 23.3597 15.2969C23.9696 14.1103 24.828 13.1856 25.935 12.5227C27.0487 11.8598 28.3545 11.5284 29.8526 11.5284C30.8602 11.5284 31.7982 11.6908 32.6665 12.0156C33.5415 12.3338 34.3039 12.8144 34.9535 13.4574C35.6097 14.1004 36.1201 14.9091 36.4847 15.8835C36.8493 16.8513 37.0316 17.9848 37.0316 19.2841V20.4474H24.1353V17.8224H33.0444C33.0444 17.2126 32.9118 16.6723 32.6467 16.2017C32.3815 15.7311 32.0136 15.3632 31.543 15.098C31.079 14.8262 30.5387 14.6903 29.9222 14.6903C29.2792 14.6903 28.7092 14.8395 28.212 15.1378C27.7215 15.4295 27.337 15.8239 27.0586 16.321C26.7802 16.8116 26.6377 17.3584 26.631 17.9616V20.4574C26.631 21.2131 26.7702 21.866 27.0487 22.4162C27.3337 22.9664 27.7347 23.3906 28.2518 23.6889C28.7688 23.9872 29.382 24.1364 30.0913 24.1364C30.5619 24.1364 30.9928 24.0701 31.3839 23.9375C31.775 23.8049 32.1097 23.6061 32.3881 23.3409C32.6665 23.0758 32.8787 22.7509 33.0245 22.3665L36.9421 22.625C36.7433 23.5663 36.3356 24.3883 35.7191 25.0909C35.1093 25.7869 34.3204 26.3305 33.3526 26.7216C32.3915 27.1061 31.2811 27.2983 30.0217 27.2983ZM48.0089 11.7273V14.9091H38.5827V11.7273H48.0089ZM40.7404 27V10.6236C40.7404 9.51657 40.9558 8.59848 41.3867 7.86932C41.8242 7.14015 42.4208 6.59328 43.1765 6.22869C43.9322 5.86411 44.7906 5.68182 45.7518 5.68182C46.4014 5.68182 46.9947 5.73153 47.5316 5.83097C48.0752 5.9304 48.4795 6.01989 48.7447 6.09943L47.989 9.28125C47.8233 9.22822 47.6178 9.1785 47.3725 9.1321C47.1339 9.0857 46.8886 9.0625 46.6367 9.0625C46.0136 9.0625 45.5794 9.20833 45.3342 9.5C45.0889 9.78504 44.9663 10.1861 44.9663 10.7031V27H40.7404ZM50.5966 27V11.7273H54.8324V27H50.5966ZM52.7244 9.75852C52.0947 9.75852 51.5545 9.54972 51.1037 9.1321C50.6596 8.70786 50.4375 8.20076 50.4375 7.61079C50.4375 7.02746 50.6596 6.52699 51.1037 6.10938C51.5545 5.68513 52.0947 5.47301 52.7244 5.47301C53.3542 5.47301 53.8911 5.68513 54.3352 6.10938C54.786 6.52699 55.0114 7.02746 55.0114 7.61079C55.0114 8.20076 54.786 8.70786 54.3352 9.1321C53.8911 9.54972 53.3542 9.75852 52.7244 9.75852Z" fill="#141919"/>
<path d="M74.6023 11.7273C74.483 10.7197 73.9991 9.9375 73.1506 9.38068C72.3021 8.82386 71.2614 8.54545 70.0284 8.54545C69.1269 8.54545 68.3381 8.69129 67.6619 8.98295C66.9924 9.27462 66.4688 9.67566 66.0909 10.1861C65.7197 10.6965 65.5341 11.2765 65.5341 11.9261C65.5341 12.4697 65.6634 12.937 65.9219 13.3281C66.187 13.7126 66.5251 14.0341 66.9361 14.2926C67.3471 14.5445 67.7779 14.7533 68.2287 14.919C68.6795 15.0781 69.0938 15.2074 69.4716 15.3068L71.5398 15.8636C72.0701 16.0028 72.66 16.1951 73.3097 16.4403C73.9659 16.6856 74.5923 17.0204 75.1889 17.4446C75.7921 17.8622 76.2893 18.3991 76.6804 19.0554C77.0715 19.7116 77.267 20.517 77.267 21.4716C77.267 22.572 76.9787 23.5663 76.402 24.4545C75.8319 25.3428 74.9967 26.0488 73.8963 26.5724C72.8026 27.0961 71.4735 27.358 69.9091 27.358C68.4508 27.358 67.188 27.1226 66.1207 26.652C65.0601 26.1813 64.2249 25.5251 63.6151 24.6832C63.0118 23.8414 62.6705 22.8636 62.5909 21.75H65.1364C65.2027 22.5189 65.4612 23.1553 65.9119 23.6591C66.3693 24.1562 66.946 24.5275 67.642 24.7727C68.3447 25.0114 69.1004 25.1307 69.9091 25.1307C70.8504 25.1307 71.6955 24.9782 72.4446 24.6733C73.1937 24.3617 73.7869 23.9309 74.2244 23.3807C74.6619 22.8239 74.8807 22.1742 74.8807 21.4318C74.8807 20.7557 74.6918 20.2055 74.3139 19.7812C73.9361 19.357 73.4389 19.0123 72.8224 18.7472C72.206 18.482 71.5398 18.25 70.8239 18.0511L68.3182 17.3352C66.7273 16.8778 65.4678 16.2249 64.5398 15.3764C63.6117 14.5279 63.1477 13.4176 63.1477 12.0455C63.1477 10.9053 63.456 9.91098 64.0724 9.0625C64.6955 8.20739 65.5308 7.54451 66.5781 7.07386C67.6321 6.59659 68.8087 6.35795 70.108 6.35795C71.4205 6.35795 72.5871 6.59328 73.608 7.06392C74.6288 7.52793 75.4375 8.1643 76.0341 8.97301C76.6373 9.78172 76.9555 10.6998 76.9886 11.7273H74.6023ZM81.0032 32.7273V11.7273H83.2702V14.1534H83.5487C83.721 13.8883 83.9596 13.5502 84.2646 13.1392C84.5761 12.7216 85.0202 12.3504 85.5969 12.0256C86.1803 11.6941 86.9691 11.5284 87.9634 11.5284C89.2494 11.5284 90.3829 11.8499 91.364 12.4929C92.3451 13.1359 93.1107 14.0473 93.6609 15.2273C94.2111 16.4072 94.4862 17.7992 94.4862 19.4034C94.4862 21.0208 94.2111 22.4228 93.6609 23.6094C93.1107 24.7893 92.3484 25.7041 91.3739 26.3537C90.3995 26.9967 89.2759 27.3182 88.0032 27.3182C87.0221 27.3182 86.2366 27.1558 85.6467 26.831C85.0567 26.4995 84.6026 26.125 84.2844 25.7074C83.9663 25.2831 83.721 24.9318 83.5487 24.6534H83.3498V32.7273H81.0032ZM83.31 19.3636C83.31 20.517 83.479 21.5346 83.8171 22.4162C84.1552 23.2912 84.649 23.9773 85.2987 24.4744C85.9483 24.965 86.7437 25.2102 87.685 25.2102C88.6661 25.2102 89.4847 24.9517 90.141 24.4347C90.8039 23.911 91.301 23.2083 91.6325 22.3267C91.9705 21.4384 92.1396 20.4508 92.1396 19.3636C92.1396 18.2898 91.9738 17.322 91.6424 16.4602C91.3176 15.5919 90.8237 14.9058 90.1609 14.402C89.5046 13.8916 88.6793 13.6364 87.685 13.6364C86.7305 13.6364 85.9284 13.8783 85.2788 14.3622C84.6291 14.8395 84.1386 15.509 83.8072 16.3707C83.4757 17.2259 83.31 18.2235 83.31 19.3636ZM102.56 27.358C101.592 27.358 100.714 27.1757 99.9251 26.8111C99.1362 26.4399 98.5098 25.9062 98.0458 25.2102C97.5818 24.5076 97.3498 23.6591 97.3498 22.6648C97.3498 21.7898 97.5221 21.0805 97.8668 20.5369C98.2115 19.9867 98.6722 19.5559 99.2489 19.2443C99.8256 18.9328 100.462 18.7008 101.158 18.5483C101.861 18.3892 102.567 18.2633 103.276 18.1705C104.204 18.0511 104.956 17.9616 105.533 17.902C106.116 17.8357 106.541 17.7263 106.806 17.5739C107.078 17.4214 107.213 17.1562 107.213 16.7784V16.6989C107.213 15.7178 106.945 14.9555 106.408 14.4119C105.878 13.8684 105.072 13.5966 103.992 13.5966C102.872 13.5966 101.993 13.8419 101.357 14.3324C100.721 14.8229 100.273 15.3466 100.015 15.9034L97.7873 15.108C98.185 14.1799 98.7153 13.4574 99.3782 12.9403C100.048 12.4167 100.777 12.0521 101.566 11.8466C102.361 11.6345 103.143 11.5284 103.912 11.5284C104.403 11.5284 104.966 11.5881 105.603 11.7074C106.246 11.8201 106.865 12.0554 107.462 12.4134C108.065 12.7713 108.566 13.3116 108.963 14.0341C109.361 14.7566 109.56 15.7244 109.56 16.9375V27H107.213V24.9318H107.094C106.935 25.2633 106.67 25.6179 106.299 25.9957C105.927 26.3736 105.434 26.6951 104.817 26.9602C104.201 27.2254 103.448 27.358 102.56 27.358ZM102.918 25.25C103.846 25.25 104.628 25.0677 105.265 24.7031C105.908 24.3385 106.391 23.8679 106.716 23.2912C107.048 22.7145 107.213 22.108 107.213 21.4716V19.3239C107.114 19.4432 106.895 19.5526 106.557 19.652C106.226 19.7448 105.841 19.8277 105.404 19.9006C104.973 19.9669 104.552 20.0265 104.141 20.0795C103.737 20.1259 103.408 20.1657 103.157 20.1989C102.547 20.2784 101.977 20.4077 101.446 20.5866C100.923 20.759 100.498 21.0208 100.174 21.3722C99.8555 21.7169 99.6964 22.1875 99.6964 22.7841C99.6964 23.5994 99.998 24.2159 100.601 24.6335C101.211 25.0445 101.983 25.25 102.918 25.25ZM120.048 27.3182C118.616 27.3182 117.383 26.9801 116.349 26.304C115.315 25.6278 114.519 24.6965 113.962 23.5099C113.406 22.3234 113.127 20.9678 113.127 19.4432C113.127 17.892 113.412 16.5232 113.982 15.3366C114.559 14.1435 115.361 13.2121 116.388 12.5426C117.423 11.8665 118.629 11.5284 120.008 11.5284C121.082 11.5284 122.049 11.7273 122.911 12.125C123.773 12.5227 124.479 13.0795 125.029 13.7955C125.579 14.5114 125.921 15.3466 126.053 16.3011H123.707C123.528 15.6051 123.13 14.9886 122.513 14.4517C121.904 13.9081 121.082 13.6364 120.048 13.6364C119.133 13.6364 118.331 13.875 117.641 14.3523C116.959 14.8229 116.425 15.4891 116.04 16.3509C115.663 17.206 115.474 18.2102 115.474 19.3636C115.474 20.5436 115.659 21.571 116.031 22.446C116.408 23.321 116.939 24.0005 117.621 24.4844C118.311 24.9683 119.12 25.2102 120.048 25.2102C120.657 25.2102 121.211 25.1042 121.708 24.892C122.205 24.6799 122.626 24.375 122.971 23.9773C123.316 23.5795 123.561 23.1023 123.707 22.5455H126.053C125.921 23.447 125.593 24.259 125.069 24.9815C124.552 25.6974 123.866 26.2675 123.011 26.6918C122.162 27.1094 121.174 27.3182 120.048 27.3182ZM135.887 27.3182C134.415 27.3182 133.146 26.9934 132.079 26.3438C131.018 25.6875 130.2 24.7727 129.623 23.5994C129.053 22.4195 128.768 21.0473 128.768 19.483C128.768 17.9186 129.053 16.5398 129.623 15.3466C130.2 14.1468 131.002 13.2121 132.029 12.5426C133.063 11.8665 134.27 11.5284 135.648 11.5284C136.444 11.5284 137.229 11.661 138.005 11.9261C138.781 12.1913 139.487 12.6222 140.123 13.2188C140.759 13.8087 141.266 14.5909 141.644 15.5653C142.022 16.5398 142.211 17.7396 142.211 19.1648V20.1591H130.438V18.1307H139.825C139.825 17.2689 139.652 16.5 139.308 15.8239C138.969 15.1477 138.486 14.6141 137.856 14.223C137.233 13.8319 136.497 13.6364 135.648 13.6364C134.714 13.6364 133.905 13.8684 133.222 14.3324C132.546 14.7898 132.026 15.3864 131.661 16.1222C131.297 16.858 131.114 17.6468 131.114 18.4886V19.8409C131.114 20.9943 131.313 21.9721 131.711 22.7741C132.115 23.5696 132.675 24.1761 133.391 24.5938C134.107 25.0047 134.939 25.2102 135.887 25.2102C136.504 25.2102 137.06 25.1241 137.558 24.9517C138.061 24.7727 138.496 24.5076 138.86 24.1562C139.225 23.7983 139.506 23.3542 139.705 22.8239L141.972 23.4602C141.734 24.2292 141.333 24.9053 140.769 25.4886C140.206 26.0653 139.51 26.5161 138.681 26.8409C137.853 27.1591 136.921 27.3182 135.887 27.3182Z" fill="#141919"/>
<path d="M57 34.6038C28.3778 39.1539 22.7778 30.699 1 35.5663" stroke="#FE6A25" stroke-width="3"/>
</svg>
