<svg xmlns="http://www.w3.org/2000/svg" width="16" height="14" viewBox="0 0 16 14" fill="none">
  <path fill-rule="evenodd" clip-rule="evenodd" d="M7.70691 0.299042C7.51938 0.111571 7.26507 0.00625579 6.99991 0.0062558C6.73474 0.00625581 6.48044 0.111571 6.29291 0.299042L0.292909 6.29904C0.105438 6.48657 0.000122365 6.74088 0.000122376 7.00604C0.000122388 7.27121 0.105438 7.52551 0.292909 7.71304L6.29291 13.713C6.48151 13.8952 6.73411 13.996 6.99631 13.9937C7.25851 13.9914 7.50932 13.8863 7.69473 13.7009C7.88014 13.5155 7.9853 13.2646 7.98758 13.0024C7.98986 12.7402 7.88907 12.4876 7.70691 12.299L3.41391 8.00604L14.9999 8.00604C15.2651 8.00604 15.5195 7.90068 15.707 7.71315C15.8946 7.52561 15.9999 7.27126 15.9999 7.00604C15.9999 6.74083 15.8946 6.48647 15.707 6.29894C15.5195 6.1114 15.2651 6.00604 14.9999 6.00604L3.41391 6.00604L7.70691 1.71304C7.89438 1.52551 7.99969 1.27121 7.99969 1.00604C7.99969 0.740878 7.89438 0.48657 7.70691 0.299042Z" fill="#3C3C3C"/>
</svg>