<svg xmlns="http://www.w3.org/2000/svg" width="16" height="14" viewBox="0 0 16 14" fill="none">
  <path fill-rule="evenodd" clip-rule="evenodd" d="M8.29309 0.299042C8.48062 0.111571 8.73493 0.00625579 9.00009 0.0062558C9.26526 0.00625581 9.51956 0.111571 9.70709 0.299042L15.7071 6.29904C15.8946 6.48657 15.9999 6.74088 15.9999 7.00604C15.9999 7.27121 15.8946 7.52551 15.7071 7.71304L9.70709 13.713C9.51849 13.8952 9.26589 13.996 9.00369 13.9937C8.74149 13.9914 8.49068 13.8863 8.30527 13.7009C8.11986 13.5155 8.0147 13.2646 8.01242 13.0024C8.01014 12.7402 8.11093 12.4876 8.29309 12.299L12.5861 8.00604L1.00009 8.00604C0.734874 8.00604 0.48052 7.90068 0.292984 7.71315C0.105447 7.52561 9.12352e-05 7.27126 9.12468e-05 7.00604C9.12584e-05 6.74083 0.105447 6.48647 0.292984 6.29894C0.48052 6.1114 0.734874 6.00604 1.00009 6.00604L12.5861 6.00604L8.29309 1.71304C8.10562 1.52551 8.00031 1.27121 8.00031 1.00604C8.00031 0.740878 8.10562 0.48657 8.29309 0.299042Z" fill="#3C3C3C"/>
</svg>