<svg xmlns="http://www.w3.org/2000/svg" width="24" height="24" viewBox="0 0 24 24" fill="none">
  <path d="M8 12H16M9 8H6C4.93913 8 3.92172 8.42143 3.17157 9.17157C2.42143 9.92172 2 10.9391 2 12C2 13.0609 2.42143 14.0783 3.17157 14.8284C3.92172 15.5786 4.93913 16 6 16H9M15 8H18C19.0609 8 20.0783 8.42143 20.8284 9.17157C21.5786 9.92172 22 10.9391 22 12C22 13.0609 21.5786 14.0783 20.8284 14.8284C20.0783 15.5786 19.0609 16 18 16H15" stroke="#3C3C3C" stroke-width="2" stroke-linecap="round" stroke-linejoin="round"/>
</svg>